PathFileType	4	(X/Y/Z)	/Users/itak/Documents/Research/Walk-IL/dataset/trc/00447_00167.trc
DataRate	CameraRate	NumFrames	NumMarkers	Units	OrigDataRate	OrigDataStartFrame	OrigNumFrames
100.000000	100.000000	4	55	mm	100.000000	220	294
Frame#	Time	RPSI			LPSI			L3			STRN			T10			C7			CLAV			RBAK			LBAK			LSHO			LUPA			LAEL			LAOL			LWTS			LWPS			LFRA			LIFD			LHPS			LHTS			RSHO			RUPA			RAEL			RAOL			RWTS			RWPS			RFRA			RIFD			RHTS			RHPS			RBHD			LFHD			RFHD			LBHD			LHIP			RHIP			RASI			LASI			LKNE			LTHI			LANK			LTIP			LTOE			LMT1			LMT5			LHEE			RKNE			RTHI			RANK			RTIP			RTOE			RMT1			RMT5			RHEE			*53			*54			
		X1	Y1	Z1	X2	Y2	Z2	X3	Y3	Z3	X4	Y4	Z4	X5	Y5	Z5	X6	Y6	Z6	X7	Y7	Z7	X8	Y8	Z8	X9	Y9	Z9	X10	Y10	Z10	X11	Y11	Z11	X12	Y12	Z12	X13	Y13	Z13	X14	Y14	Z14	X15	Y15	Z15	X16	Y16	Z16	X17	Y17	Z17	X18	Y18	Z18	X19	Y19	Z19	X20	Y20	Z20	X21	Y21	Z21	X22	Y22	Z22	X23	Y23	Z23	X24	Y24	Z24	X25	Y25	Z25	X26	Y26	Z26	X27	Y27	Z27	X28	Y28	Z28	X29	Y29	Z29	X30	Y30	Z30	X31	Y31	Z31	X32	Y32	Z32	X33	Y33	Z33	X34	Y34	Z34	X35	Y35	Z35	X36	Y36	Z36	X37	Y37	Z37	X38	Y38	Z38	X39	Y39	Z39	X40	Y40	Z40	X41	Y41	Z41	X42	Y42	Z42	X43	Y43	Z43	X44	Y44	Z44	X45	Y45	Z45	X46	Y46	Z46	X47	Y47	Z47	X48	Y48	Z48	X49	Y49	Z49	X50	Y50	Z50	X51	Y51	Z51	X52	Y52	Z52	X53	Y53	Z53	X54	Y54	Z54	X55	Y55	Z55	

221	2.2	942.1760864257812	824.3289184570312	729.2377319335938	1040.1923828125	826.054931640625	624.25	976.3995971679688	940.1409301757812	691.10302734375	1205.734130859375	1172.529174804688	834.37451171875	960.4286499023438	1063.550415039062	676.8906860351562	988.6566162109375	1338.9375	711.0912475585938	1167.117919921875	1280.7626953125	798.2046508789062	896.074951171875	1214.243896484375	764.9324951171875	1015.034423828125	1286.436401367188	612.9346923828125	1143.619384765625	1321.560913085938	591.324462890625	1182.99267578125	1207.281005859375	501.3685302734375	1210.18603515625	1004.971923828125	447.8384399414062	1106.774047851562	995.8819580078125	453.9796142578125	1234.58203125	793.426513671875	483.72705078125	1229.711669921875	793.127197265625	409.5062255859375	1227.498168945312	918.11328125	433.3624877929688	1230.428344726562	630.738037109375	452.1163635253906	1236.04541015625	713.0272827148438	397.8090515136719	1253.892822265625	707.1438598632812	467.9392395019531	967.1861572265625	1318.418212890625	888.1414184570312	922.1735229492188	1251.901245117188	948.075927734375	926.8070678710938	970.6895751953125	1018.482727050781	905.1796264648438	938.5040893554688	962.1288452148438	1089.22119140625	820.6063232421875	1050.118774414062	1012.606994628906	789.060302734375	1074.537963867188	942.5116577148438	915.7988891601562	1035.550903320312	1126.842041015625	682.9814453125	1112.286743164062	1119.862915039062	742.3353271484375	1102.781372070312	1048.79150390625	723.0208129882812	1112.652954101562	983.1416625976562	1542.818603515625	790.877685546875	1174.646728515625	1580.1123046875	723.3953857421875	1107.091430664062	1589.609008789062	836.2491455078125	1062.073608398438	1531.86279296875	632.7029418945312	1243.662963867188	771.3389892578125	652.6830444335938	946.212158203125	758.162841796875	929.717529296875	1054.745849609375	823.805908203125	943.5738525390625	1235.980834960938	829.633056640625	763.6793212890625	1430.090209960938	437.251708984375	833.7005615234375	1391.743774414062	583.4520263671875	777.6641235351562	1345.556884765625	25.02968978881836	754.2002563476562	1425.68994140625	274.5919494628906	814.6458740234375	1470.0634765625	23.62509346008301	968.0822143554688	1395.902587890625	37.30876922607422	936.9193725585938	1466.076782226562	28.41544342041016	843.4618530273438	1271.70263671875	17.18468284606934	757.145751953125	1063.300415039062	420.5687866210938	1051.306518554688	1009.343994140625	620.8817749023438	988.2593994140625	788.7063598632812	170.6902008056641	831.3836669921875	977.7245483398438	321.3432312011719	1001.946105957031	919.8492431640625	25.94268608093262	887.4771728515625	912.157470703125	56.78188323974609	830.70849609375	829.6467895507812	70.62744903564453	898.40234375	789.9691162109375	216.5661773681641	766.013427734375	nan	nan	nan	nan	nan	nan	
222	2.21	950.9867553710938	826.9454345703125	733.2515869140625	1049.399536132812	828.5546264648438	628.7495727539062	985.618896484375	943.0274658203125	695.2490844726562	1214.736694335938	1174.868286132812	840.6461181640625	969.978271484375	1066.537475585938	681.1251831054688	999.35400390625	1341.64111328125	715.6348876953125	1176.611694335938	1283.141235351562	804.0883178710938	905.9874267578125	1217.58251953125	769.2132568359375	1026.549438476562	1289.20947265625	617.31787109375	1155.47216796875	1324.195922851562	597.3828735351562	1197.900512695312	1208.889404296875	509.5619201660156	1230.973266601562	1006.140747070312	460.3681335449219	1127.839599609375	994.212158203125	465.1214904785156	1261.840942382812	796.9603881835938	500.8679504394531	1258.03759765625	795.1046142578125	426.7496337890625	1251.378173828125	919.7156982421875	448.0310363769531	1265.204223632812	634.2044067382812	471.1187744140625	1267.81982421875	715.6726684570312	416.1438903808594	1284.865966796875	711.5274047851562	486.4751892089844	976.6442260742188	1321.507568359375	892.6531982421875	931.213134765625	1254.837158203125	951.962646484375	934.3267211914062	972.5743408203125	1020.72314453125	912.7948608398438	942.6322631835938	963.03466796875	1087.473266601562	813.0057373046875	1055.737915039062	1007.513427734375	785.1614379882812	1073.608764648438	946.850830078125	916.4735107421875	1036.913818359375	1110.687377929688	672.280029296875	1118.074951171875	1108.778930664062	731.8662719726562	1109.18798828125	1036.071166992188	717.0955200195312	1112.681640625	994.8814086914062	1545.72021484375	796.85009765625	1186.60546875	1581.9580078125	729.4514770507812	1119.184448242188	1591.404052734375	842.3043823242188	1073.589965820312	1535.005126953125	638.610595703125	1252.265869140625	773.1270751953125	658.14501953125	954.5304565429688	760.5562133789062	933.9693603515625	1062.155029296875	826.9157104492188	948.17041015625	1243.995239257812	831.1930541992188	769.2330932617188	1435.274658203125	435.8955688476562	837.4853515625	1398.574340820312	583.1325073242188	782.5189208984375	1345.377319335938	25.40024375915527	754.4169311523438	1428.4345703125	273.3290100097656	816.9069213867188	1470.054321289062	24.02238845825195	967.7183227539062	1395.985595703125	37.60853958129883	936.8212280273438	1465.95556640625	28.49606323242188	843.3478393554688	1271.373901367188	17.71957969665527	757.5553588867188	1079.341796875	426.701171875	1061.23876953125	1018.809692382812	622.6630249023438	992.9404296875	813.1370849609375	166.7171020507812	843.0870361328125	996.751220703125	324.9721374511719	1012.527282714844	947.1942749023438	27.24505233764648	908.4658813476562	939.844970703125	56.68191146850586	849.8902587890625	855.6210327148438	70.73368072509766	915.1653442382812	814.0448608398438	209.7524566650391	775.8641967773438	nan	nan	nan	nan	nan	nan	
223	2.22	959.2180786132812	830.733154296875	737.3524169921875	1057.880126953125	832.0177001953125	633.19384765625	994.5520629882812	946.883544921875	699.392578125	1222.9697265625	1178.168823242188	846.7123413085938	979.2297973632812	1070.446655273438	685.2232055664062	1009.395385742188	1345.316040039062	720.0457153320312	1185.388793945312	1286.515869140625	809.8745727539062	915.3787231445312	1221.7626953125	773.220458984375	1037.4609375	1293.01806640625	621.6836547851562	1166.522705078125	1328.079467773438	603.4531860351562	1211.619262695312	1212.486206054688	517.142822265625	1249.763427734375	1009.352478027344	471.4389953613281	1147.171875	994.4785766601562	475.6934814453125	1288.220458984375	803.7034912109375	518.5966186523438	1284.870727539062	799.2616577148438	444.8419494628906	1273.482543945312	923.4458618164062	461.9493408203125	1299.89453125	641.1408081054688	493.3706970214844	1298.3583984375	720.6034545898438	436.4940490722656	1315.318969726562	719.41796875	506.6282043457031	985.3046264648438	1325.693725585938	896.8442993164062	939.3150634765625	1259.147338867188	955.6843872070312	940.7136840820312	975.9854736328125	1023.107727050781	919.1018676757812	948.2224731445312	964.2457275390625	1084.856689453125	807.5354614257812	1060.436645507812	1002.158447265625	783.431884765625	1071.885498046875	950.3334350585938	918.917236328125	1038.2880859375	1093.73583984375	663.5770263671875	1120.063110351562	1097.012817382812	723.1798095703125	1112.913452148438	1023.182250976562	713.1159057617188	1110.222778320312	1006.064086914062	1549.682006835938	802.8204956054688	1198.049682617188	1584.691284179688	735.5609741210938	1130.698486328125	1594.041381835938	848.3157348632812	1084.545654296875	1539.26025390625	644.4895629882812	1260.02099609375	775.4435424804688	663.0903930664062	962.5310668945312	764.3280639648438	938.4437255859375	1069.437622070312	831.0167236328125	952.46630859375	1251.643432617188	833.396484375	774.3318481445312	1439.122436523438	434.6386413574219	840.2293701171875	1404.263305664062	582.939697265625	786.555908203125	1345.265747070312	25.68052673339844	754.6121826171875	1430.38671875	272.24462890625	818.4873046875	1470.098754882812	24.35075187683105	967.4013671875	1396.096069335938	37.85965347290039	936.7640991210938	1465.88037109375	28.53804397583008	843.27490234375	1271.120727539062	18.12951850891113	758.0346069335938	1094.212158203125	433.7362976074219	1070.457885742188	1027.958251953125	625.8228149414062	997.8439331054688	837.623291015625	161.9784240722656	854.7291259765625	1014.776916503906	329.1573486328125	1022.534484863281	974.4978637695312	29.01739501953125	930.3624267578125	967.7743530273438	56.79754257202148	869.8799438476562	881.4688720703125	70.75308990478516	932.1624145507812	838.3948364257812	201.9363250732422	785.6847534179688	nan	nan	nan	nan	nan	nan	
224	2.23	966.8501586914062	835.492919921875	741.6817626953125	1065.564453125	836.3862915039062	637.6867065429688	1003.161193847656	951.6013793945312	703.632568359375	1230.565673828125	1182.249145507812	852.666259765625	988.2229614257812	1075.18359375	689.24267578125	1018.905517578125	1349.874755859375	724.3881225585938	1193.59375	1290.712768554688	815.645263671875	924.3339233398438	1226.68994140625	776.9899291992188	1047.838989257812	1297.743774414062	626.0650024414062	1176.894775390625	1332.95947265625	609.5314331054688	1224.204345703125	1217.6630859375	524.1114501953125	1266.686645507812	1014.238525390625	481.0060119628906	1164.838134765625	996.3654174804688	485.4269714355469	1313.474731445312	813.4589233398438	536.704345703125	1310.216674804688	805.4498291015625	463.5986938476562	1293.8525390625	929.034912109375	475.04736328125	1333.97802734375	651.582275390625	518.6459350585938	1327.531616210938	727.720947265625	458.6868286132812	1344.854370117188	730.6964721679688	528.2132568359375	993.3182983398438	1330.771240234375	900.8336791992188	946.585205078125	1264.562622070312	959.2693481445312	945.9005737304688	980.6624755859375	1025.583251953125	924.131103515625	954.9235229492188	965.7417602539062	1081.62109375	804.1294555664062	1064.323852539062	996.8377075195312	783.6767578125	1069.904663085938	952.9332885742188	922.8798828125	1039.745971679688	1077.138549804688	656.891845703125	1118.273681640625	1085.378540039062	716.290283203125	1113.986206054688	1010.952270507812	710.8897094726562	1105.797485351562	1016.713439941406	1554.563842773438	808.7745971679688	1208.987670898438	1588.253295898438	741.7036743164062	1141.622680664062	1597.463745117188	854.2586059570312	1094.990356445312	1544.454711914062	650.3414306640625	1266.93798828125	778.2811889648438	667.5344848632812	970.2711181640625	769.301025390625	943.2293090820312	1076.724609375	835.9052734375	956.5285034179688	1259.022338867188	836.20263671875	778.95458984375	1441.755004882812	433.62255859375	842.054931640625	1408.910034179688	582.9755249023438	789.86962890625	1345.1611328125	25.89141273498535	754.7952270507812	1431.625	271.4582214355469	819.4608154296875	1470.16796875	24.5887508392334	967.1456909179688	1396.20849609375	38.04633331298828	936.7527465820312	1465.819946289062	28.55439949035645	843.2437133789062	1270.894653320312	18.43459510803223	758.5960693359375	1107.791137695312	441.4224243164062	1078.936157226562	1036.847045898438	630.1834716796875	1003.058654785156	862.0193481445312	156.5322418212891	866.4387817382812	1031.620849609375	333.7142639160156	1031.978393554688	1001.497863769531	31.2780818939209	952.8310546875	995.61962890625	57.14621734619141	890.4344482421875	907.0056762695312	70.67144775390625	949.3269653320312	862.8522338867188	193.2427673339844	795.66748046875	nan	nan	nan	nan	nan	nan	
